<svg xmlns="http://www.w3.org/2000/svg" xmlns:xlink="http://www.w3.org/1999/xlink" width="500"
    zoomAndPan="magnify" viewBox="0 0 375 374.999991" height="500"
    preserveAspectRatio="xMidYMid meet" version="1.0">
    <defs>
        <clipPath id="3201a3a7e8">
            <path d="M 37.5 37.5 L 337.5 37.5 L 337.5 337.5 L 37.5 337.5 Z M 37.5 37.5 "
                clip-rule="nonzero" />
        </clipPath>
        <clipPath id="0dea2d7779">
            <path
                d="M 187.5 37.5 C 104.65625 37.5 37.5 104.65625 37.5 187.5 C 37.5 270.34375 104.65625 337.5 187.5 337.5 C 270.34375 337.5 337.5 270.34375 337.5 187.5 C 337.5 104.65625 270.34375 37.5 187.5 37.5 Z M 187.5 37.5 "
                clip-rule="nonzero" />
        </clipPath>
        <clipPath id="a6f7bb108d">
            <path
                d="M 90.136719 278 L 252 278 L 252 299.089844 L 90.136719 299.089844 Z M 90.136719 278 "
                clip-rule="nonzero" />
        </clipPath>
        <clipPath id="29ea9c8f87">
            <path d="M 218 93 L 285.136719 93 L 285.136719 161 L 218 161 Z M 218 93 "
                clip-rule="nonzero" />
        </clipPath>
    </defs>
    <g clip-path="url(#3201a3a7e8)">
        <g clip-path="url(#0dea2d7779)">
            <path fill="#ffffff"
                d="M 37.5 37.5 L 337.5 37.5 L 337.5 337.5 L 37.5 337.5 Z M 37.5 37.5 "
                fill-opacity="1" fill-rule="nonzero" />
        </g>
    </g>
    <path fill="#000000"
        d="M 170.746094 201.128906 C 169.871094 201.128906 169.050781 200.738281 168.5 200.0625 L 152.839844 180.773438 C 152.421875 180.257812 152.195312 179.621094 152.195312 178.964844 L 152.195312 164.636719 C 152.195312 163.5625 152.792969 162.582031 153.746094 162.082031 C 154.695312 161.589844 155.851562 161.660156 156.730469 162.273438 C 160.871094 165.148438 165.71875 166.671875 170.746094 166.671875 C 175.769531 166.671875 180.617188 165.152344 184.757812 162.273438 C 185.636719 161.660156 186.792969 161.589844 187.742188 162.082031 C 188.695312 162.578125 189.292969 163.5625 189.292969 164.636719 L 189.292969 178.964844 C 189.292969 179.625 189.066406 180.265625 188.652344 180.773438 L 172.988281 200.0625 C 172.441406 200.734375 171.617188 201.128906 170.746094 201.128906 Z M 157.96875 177.941406 L 170.746094 193.671875 L 183.519531 177.941406 L 183.519531 169.605469 C 179.535156 171.457031 175.195312 172.421875 170.746094 172.421875 C 166.292969 172.421875 161.953125 171.457031 157.96875 169.605469 Z M 157.96875 177.941406 "
        fill-opacity="1" fill-rule="nonzero" />
    <path fill="#000000"
        d="M 170.746094 172.421875 C 153.976562 172.421875 140.339844 158.820312 140.339844 142.105469 L 140.339844 140.171875 C 140.339844 138.582031 141.632812 137.292969 143.226562 137.292969 C 144.820312 137.292969 146.113281 138.582031 146.113281 140.171875 L 146.113281 142.105469 C 146.113281 155.648438 157.164062 166.671875 170.75 166.671875 C 184.332031 166.671875 195.386719 155.652344 195.386719 142.105469 L 195.386719 137.449219 C 195.386719 135.859375 196.679688 134.570312 198.273438 134.570312 C 199.867188 134.570312 201.160156 135.859375 201.160156 137.449219 L 201.160156 142.105469 C 201.15625 158.820312 187.511719 172.421875 170.746094 172.421875 Z M 170.746094 172.421875 "
        fill-opacity="1" fill-rule="nonzero" />
    <path fill="#000000"
        d="M 143.222656 143.050781 C 142.285156 143.050781 141.433594 142.59375 140.90625 141.886719 C 139.34375 140.480469 134.933594 136.339844 134.375 120.53125 C 134.25 120.398438 134.128906 120.246094 134.019531 120.09375 C 132.6875 118.238281 131.304688 114.269531 134.699219 101.292969 C 134.722656 101.210938 134.746094 101.132812 134.777344 101.058594 C 134.890625 100.738281 137.542969 93.570312 147.035156 90.929688 C 150.050781 84.777344 158.039062 75.636719 170.859375 77.726562 C 171.917969 77.898438 172.792969 78.640625 173.136719 79.652344 C 173.160156 79.730469 173.199219 79.859375 173.25 80.035156 C 178.613281 78.90625 188.710938 77.765625 194.21875 83.5 C 194.695312 83.996094 194.976562 84.644531 195.015625 85.332031 C 195.039062 85.753906 195.019531 87.179688 193.871094 88.589844 C 195.375 89.503906 196.996094 90.679688 198.59375 92.175781 C 203.628906 96.898438 209.5 105.890625 208.855469 121.910156 C 208.847656 122.191406 208.792969 122.464844 208.703125 122.730469 C 208.582031 123.082031 205.667969 131.429688 200.6875 139.019531 C 199.960938 140.128906 198.570312 140.601562 197.316406 140.160156 C 196.0625 139.722656 195.269531 138.488281 195.394531 137.167969 C 196.148438 129.335938 195.855469 115.359375 191.878906 111.195312 C 191.273438 110.5625 190.640625 110.230469 189.878906 110.15625 C 178.664062 115.765625 162.851562 115.765625 151.628906 110.164062 C 150.972656 110.242188 150.417969 110.546875 149.871094 111.117188 C 145.65625 115.488281 145.320312 131.054688 146.097656 139.871094 C 146.101562 139.921875 146.109375 139.976562 146.109375 140.027344 C 146.183594 141.589844 144.988281 142.929688 143.421875 143.035156 C 143.355469 143.042969 143.285156 143.050781 143.222656 143.050781 Z M 189.523438 104.386719 C 192.019531 104.386719 194.269531 105.363281 196.050781 107.230469 C 199.796875 111.140625 201.070312 118.765625 201.398438 125.4375 C 202.265625 123.453125 202.847656 121.925781 203.097656 121.246094 C 203.929688 95.644531 186.511719 91.417969 185.769531 91.253906 C 184.339844 90.929688 183.367188 89.589844 183.527344 88.132812 C 183.683594 86.679688 184.90625 85.574219 186.371094 85.566406 C 186.476562 85.566406 186.574219 85.566406 186.671875 85.5625 C 181.667969 84.050781 174.308594 85.550781 171.554688 86.398438 C 170.589844 86.699219 169.535156 86.46875 168.78125 85.800781 C 168.042969 85.144531 167.691406 84.160156 167.847656 83.195312 C 163.386719 83.003906 159.453125 84.632812 156.109375 88.058594 C 153.167969 91.078125 151.785156 94.421875 151.777344 94.457031 C 151.417969 95.351562 150.636719 96.003906 149.695312 96.203125 C 142.753906 97.683594 140.558594 102.1875 140.238281 102.925781 C 137.734375 112.566406 138.339844 115.738281 138.613281 116.535156 C 139.488281 117.019531 140.078125 117.9375 140.097656 118.992188 C 140.128906 120.453125 140.195312 122.003906 140.320312 123.574219 C 140.902344 117.164062 142.363281 110.59375 145.695312 107.132812 C 147.539062 105.21875 149.867188 104.28125 152.433594 104.402344 C 152.859375 104.421875 153.269531 104.535156 153.644531 104.730469 C 163.386719 109.882812 178.085938 109.882812 187.828125 104.730469 C 188.203125 104.53125 188.617188 104.421875 189.042969 104.402344 C 189.207031 104.390625 189.367188 104.386719 189.523438 104.386719 Z M 137.4375 116.175781 Z M 137.433594 116.175781 Z M 137.425781 116.175781 Z M 137.425781 116.175781 "
        fill-opacity="1" fill-rule="nonzero" />
    <path fill="#000000"
        d="M 228.550781 211.1875 L 112.941406 211.1875 C 112.09375 211.1875 111.292969 210.816406 110.742188 210.171875 C 110.195312 209.527344 109.953125 208.679688 110.089844 207.84375 C 111.527344 199.074219 116.078125 191.027344 122.898438 185.179688 C 129.800781 179.269531 138.585938 176.011719 147.640625 176.011719 L 155.082031 176.011719 C 156.171875 176.011719 157.117188 176.609375 157.609375 177.496094 L 170.746094 193.671875 L 183.878906 177.496094 C 184.371094 176.609375 185.316406 176.011719 186.40625 176.011719 L 193.847656 176.011719 C 202.898438 176.011719 211.6875 179.269531 218.589844 185.179688 C 225.410156 191.027344 229.960938 199.078125 231.398438 207.84375 C 231.535156 208.679688 231.300781 209.527344 230.753906 210.171875 C 230.203125 210.816406 229.398438 211.1875 228.550781 211.1875 Z M 116.527344 205.433594 L 224.964844 205.433594 C 221.144531 191.734375 208.332031 181.773438 193.847656 181.773438 L 187.839844 181.773438 L 172.984375 200.0625 C 172.4375 200.738281 171.609375 201.128906 170.738281 201.128906 C 169.867188 201.128906 169.046875 200.738281 168.492188 200.0625 L 153.640625 181.773438 L 147.632812 181.773438 C 133.164062 181.769531 120.347656 191.726562 116.527344 205.433594 Z M 116.527344 205.433594 "
        fill-opacity="1" fill-rule="nonzero" />
    <path fill="#000000"
        d="M 236.765625 284.070312 L 104.722656 284.070312 C 103.285156 284.070312 102.066406 283.015625 101.867188 281.597656 L 91.460938 208.71875 C 91.339844 207.894531 91.589844 207.054688 92.136719 206.425781 C 92.683594 205.792969 93.480469 205.433594 94.316406 205.433594 L 247.175781 205.433594 C 248.011719 205.433594 248.808594 205.792969 249.355469 206.425781 C 249.902344 207.054688 250.152344 207.890625 250.03125 208.71875 L 239.625 281.597656 C 239.421875 283.015625 238.203125 284.070312 236.765625 284.070312 Z M 107.226562 278.316406 L 234.261719 278.316406 L 243.847656 211.191406 L 97.644531 211.191406 Z M 107.226562 278.316406 "
        fill-opacity="1" fill-rule="nonzero" />
    <g clip-path="url(#a6f7bb108d)">
        <path fill="#000000"
            d="M 233.4375 299.054688 L 108.054688 299.054688 C 98.175781 299.054688 90.144531 291.042969 90.144531 281.195312 C 90.144531 279.605469 91.4375 278.316406 93.03125 278.316406 L 248.46875 278.316406 C 250.0625 278.316406 251.355469 279.605469 251.355469 281.195312 C 251.351562 291.042969 243.316406 299.054688 233.4375 299.054688 Z M 96.261719 284.070312 C 97.558594 289.359375 102.355469 293.296875 108.054688 293.296875 L 233.4375 293.296875 C 239.136719 293.296875 243.933594 289.359375 245.230469 284.070312 Z M 96.261719 284.070312 "
            fill-opacity="1" fill-rule="nonzero" />
    </g>
    <path fill="#000000"
        d="M 170.746094 265.472656 C 159.289062 265.472656 149.964844 256.175781 149.964844 244.753906 C 149.964844 233.328125 159.289062 224.035156 170.746094 224.035156 C 182.199219 224.035156 191.523438 233.328125 191.523438 244.753906 C 191.523438 256.175781 182.207031 265.472656 170.746094 265.472656 Z M 170.746094 229.792969 C 162.46875 229.792969 155.738281 236.503906 155.738281 244.753906 C 155.738281 253.003906 162.46875 259.714844 170.746094 259.714844 C 179.019531 259.714844 185.75 253.003906 185.75 244.753906 C 185.75 236.503906 179.019531 229.792969 170.746094 229.792969 Z M 170.746094 229.792969 "
        fill-opacity="1" fill-rule="nonzero" />
    <g clip-path="url(#29ea9c8f87)">
        <path fill="#000000"
            d="M 254.875 160.144531 L 248.976562 160.144531 C 246.21875 160.144531 243.992188 158.007812 243.789062 155.171875 L 243.515625 151.359375 C 242.523438 151.019531 241.550781 150.613281 240.605469 150.15625 L 237.707031 152.664062 C 235.554688 154.527344 232.460938 154.46875 230.511719 152.523438 L 226.34375 148.367188 C 224.394531 146.421875 224.332031 143.339844 226.203125 141.191406 L 228.71875 138.300781 C 228.257812 137.355469 227.851562 136.386719 227.511719 135.398438 L 223.6875 135.128906 C 220.84375 134.929688 218.699219 132.703125 218.699219 129.957031 L 218.699219 124.074219 C 218.699219 121.324219 220.84375 119.101562 223.6875 118.902344 L 227.511719 118.632812 C 227.851562 117.644531 228.257812 116.671875 228.71875 115.730469 L 226.203125 112.839844 C 224.332031 110.691406 224.394531 107.609375 226.34375 105.664062 L 230.511719 101.507812 C 232.460938 99.5625 235.554688 99.503906 237.703125 101.367188 L 240.601562 103.875 C 241.546875 103.414062 242.519531 103.011719 243.511719 102.671875 L 243.78125 98.859375 C 243.984375 96.019531 246.214844 93.886719 248.96875 93.886719 L 254.867188 93.886719 C 257.625 93.886719 259.855469 96.023438 260.054688 98.859375 L 260.324219 102.671875 C 261.316406 103.011719 262.289062 103.414062 263.238281 103.875 L 266.132812 101.367188 C 268.289062 99.503906 271.382812 99.5625 273.324219 101.507812 L 277.496094 105.664062 C 279.445312 107.609375 279.5 110.691406 277.636719 112.835938 L 275.121094 115.722656 C 275.582031 116.667969 275.988281 117.636719 276.328125 118.628906 L 280.152344 118.898438 C 282.992188 119.097656 285.136719 121.320312 285.136719 124.070312 L 285.136719 129.953125 C 285.136719 132.699219 282.992188 134.917969 280.152344 135.125 L 276.328125 135.394531 C 275.988281 136.382812 275.582031 137.351562 275.121094 138.296875 L 277.636719 141.183594 C 279.503906 143.335938 279.445312 146.417969 277.496094 148.355469 L 273.324219 152.515625 C 271.375 154.457031 268.285156 154.519531 266.128906 152.652344 L 263.234375 150.144531 C 262.285156 150.605469 261.3125 151.011719 260.320312 151.351562 L 260.050781 155.164062 C 259.855469 158.007812 257.625 160.144531 254.875 160.144531 Z M 249.519531 154.386719 L 254.320312 154.386719 L 254.707031 148.964844 C 254.796875 147.726562 255.671875 146.6875 256.878906 146.378906 C 258.726562 145.90625 260.5 145.171875 262.148438 144.199219 C 263.222656 143.5625 264.574219 143.683594 265.519531 144.5 L 269.636719 148.0625 L 273.035156 144.671875 L 269.460938 140.566406 C 268.644531 139.625 268.523438 138.273438 269.160156 137.207031 C 270.144531 135.5625 270.875 133.800781 271.347656 131.949219 C 271.652344 130.746094 272.699219 129.875 273.941406 129.785156 L 279.378906 129.402344 L 279.378906 124.613281 L 273.941406 124.230469 C 272.699219 124.140625 271.65625 123.269531 271.347656 122.066406 C 270.875 120.222656 270.136719 118.453125 269.160156 116.808594 C 268.523438 115.738281 268.644531 114.390625 269.460938 113.449219 L 273.035156 109.34375 L 269.636719 105.953125 L 265.519531 109.519531 C 264.574219 110.332031 263.21875 110.453125 262.148438 109.816406 C 260.5 108.839844 258.730469 108.109375 256.878906 107.636719 C 255.671875 107.332031 254.796875 106.289062 254.707031 105.050781 L 254.320312 99.628906 L 249.519531 99.628906 L 249.136719 105.050781 C 249.046875 106.289062 248.171875 107.328125 246.964844 107.636719 C 245.117188 108.109375 243.34375 108.84375 241.691406 109.816406 C 240.621094 110.453125 239.265625 110.332031 238.324219 109.519531 L 234.207031 105.953125 L 230.808594 109.34375 L 234.382812 113.449219 C 235.199219 114.390625 235.316406 115.746094 234.683594 116.808594 C 233.699219 118.449219 232.96875 120.214844 232.496094 122.066406 C 232.191406 123.269531 231.144531 124.140625 229.902344 124.230469 L 224.464844 124.613281 L 224.464844 129.402344 L 229.902344 129.785156 C 231.144531 129.875 232.1875 130.746094 232.496094 131.945312 C 232.96875 133.792969 233.703125 135.5625 234.683594 137.203125 C 235.316406 138.273438 235.199219 139.625 234.382812 140.5625 L 230.808594 144.667969 L 234.207031 148.054688 L 238.324219 144.492188 C 239.265625 143.679688 240.621094 143.558594 241.691406 144.195312 C 243.34375 145.171875 245.117188 145.902344 246.964844 146.371094 C 248.171875 146.675781 249.046875 147.722656 249.136719 148.960938 Z M 249.519531 154.386719 "
            fill-opacity="1" fill-rule="nonzero" />
    </g>
    <path fill="#000000"
        d="M 251.921875 142.15625 C 243.550781 142.15625 236.742188 135.363281 236.742188 127.019531 C 236.742188 118.671875 243.550781 111.882812 251.921875 111.882812 C 260.289062 111.882812 267.101562 118.671875 267.101562 127.019531 C 267.101562 135.363281 260.296875 142.15625 251.921875 142.15625 Z M 251.921875 117.632812 C 246.734375 117.632812 242.515625 121.839844 242.515625 127.011719 C 242.515625 132.183594 246.734375 136.394531 251.921875 136.394531 C 257.109375 136.394531 261.328125 132.183594 261.328125 127.011719 C 261.328125 121.847656 257.109375 117.632812 251.921875 117.632812 Z M 251.921875 117.632812 "
        fill-opacity="1" fill-rule="nonzero" />
</svg>