<svg xmlns="http://www.w3.org/2000/svg" xmlns:xlink="http://www.w3.org/1999/xlink" width="500" zoomAndPan="magnify" viewBox="0 0 375 374.999991" height="500" preserveAspectRatio="xMidYMid meet" version="1.0"><defs><clipPath id="7a865d2e54"><path d="M 145 54.5625 L 230 54.5625 L 230 117 L 145 117 Z M 145 54.5625 " clip-rule="nonzero"/></clipPath><clipPath id="09c9688072"><path d="M 37.539062 287.640625 L 337.460938 287.640625 L 337.460938 320.433594 L 37.539062 320.433594 Z M 37.539062 287.640625 " clip-rule="nonzero"/></clipPath></defs><path fill="#ffffff" d="M 109.578125 287.609375 L 265.421875 287.609375 L 272.304688 195.5 C 272.363281 194.738281 271.996094 194.222656 271.773438 193.980469 C 271.550781 193.742188 271.0625 193.339844 270.296875 193.339844 L 104.703125 193.339844 C 103.9375 193.339844 103.449219 193.742188 103.226562 193.980469 C 103.003906 194.222656 102.636719 194.738281 102.695312 195.5 Z M 269.242188 295.839844 L 105.757812 295.839844 C 103.601562 295.839844 101.8125 294.179688 101.652344 292.03125 L 94.484375 196.113281 C 94.273438 193.28125 95.257812 190.464844 97.191406 188.382812 C 99.125 186.300781 101.859375 185.105469 104.703125 185.105469 L 270.296875 185.105469 C 273.140625 185.105469 275.875 186.300781 277.808594 188.382812 C 279.742188 190.464844 280.726562 193.28125 280.515625 196.113281 L 273.347656 292.03125 C 273.1875 294.179688 271.398438 295.839844 269.242188 295.839844 " fill-opacity="1" fill-rule="nonzero"/><path fill="#ffffff" d="M 187.5 192.164062 C 186.253906 192.164062 185.078125 191.597656 184.296875 190.628906 L 168.03125 170.464844 C 167.4375 169.734375 167.117188 168.820312 167.117188 167.878906 L 167.117188 153.441406 C 167.117188 151.167969 168.960938 149.324219 171.234375 149.324219 C 173.507812 149.324219 175.351562 151.167969 175.351562 153.441406 L 175.351562 166.425781 L 187.5 181.488281 L 199.648438 166.425781 L 199.648438 153.441406 C 199.648438 151.167969 201.492188 149.324219 203.765625 149.324219 C 206.039062 149.324219 207.882812 151.167969 207.882812 153.441406 L 207.882812 167.878906 C 207.882812 168.820312 207.5625 169.734375 206.96875 170.464844 L 190.703125 190.628906 C 189.921875 191.597656 188.746094 192.164062 187.5 192.164062 " fill-opacity="1" fill-rule="nonzero"/><g clip-path="url(#7a865d2e54)"><path fill="#ffffff" d="M 225.8125 116.066406 C 223.539062 116.066406 221.695312 114.222656 221.695312 111.949219 L 221.695312 96.992188 C 221.695312 78.203125 206.414062 62.863281 187.625 62.796875 C 187.585938 62.796875 187.546875 62.796875 187.503906 62.796875 C 178.515625 62.796875 170.007812 66.34375 163.53125 72.796875 C 156.933594 79.371094 153.300781 88.070312 153.300781 97.289062 L 153.300781 111.949219 C 153.300781 114.222656 151.457031 116.066406 149.183594 116.066406 C 146.910156 116.066406 145.066406 114.222656 145.066406 111.949219 L 145.066406 97.289062 C 145.066406 91.527344 146.214844 85.917969 148.472656 80.613281 C 150.652344 75.5 153.765625 70.90625 157.722656 66.964844 C 165.75 58.964844 176.324219 54.5625 187.503906 54.5625 C 187.554688 54.5625 187.605469 54.5625 187.65625 54.5625 C 198.957031 54.605469 209.574219 59.035156 217.554688 67.042969 C 225.535156 75.050781 229.929688 85.6875 229.929688 96.992188 L 229.929688 111.949219 C 229.929688 114.222656 228.085938 116.066406 225.8125 116.066406 " fill-opacity="1" fill-rule="nonzero"/></g><path fill="#ffffff" d="M 163.25 108.546875 L 163.25 130.132812 C 163.25 143.503906 174.128906 154.382812 187.5 154.382812 C 200.871094 154.382812 211.75 143.503906 211.75 130.132812 L 211.75 106.03125 L 203.933594 97.304688 C 191.539062 106.664062 171.871094 108.296875 163.25 108.546875 Z M 187.5 162.613281 C 169.589844 162.613281 155.015625 148.042969 155.015625 130.132812 L 155.015625 104.453125 C 155.015625 103.339844 155.46875 102.277344 156.269531 101.5 C 157.066406 100.726562 158.140625 100.304688 159.253906 100.339844 C 159.550781 100.347656 188.980469 101.050781 201.394531 88.636719 C 202.191406 87.839844 203.289062 87.402344 204.417969 87.433594 C 205.546875 87.464844 206.617188 87.960938 207.371094 88.804688 L 218.933594 101.707031 C 219.609375 102.460938 219.984375 103.441406 219.984375 104.453125 L 219.984375 130.132812 C 219.984375 148.042969 205.410156 162.613281 187.5 162.613281 " fill-opacity="1" fill-rule="nonzero"/><path fill="#ffffff" d="M 155.015625 114.488281 C 151.691406 114.53125 149 117.25 149 120.585938 C 149 123.921875 151.691406 126.640625 155.015625 126.6875 Z M 159.132812 134.921875 L 155.101562 134.921875 C 147.199219 134.921875 140.769531 128.492188 140.769531 120.585938 C 140.769531 112.683594 147.199219 106.253906 155.101562 106.253906 L 159.132812 106.253906 C 161.40625 106.253906 163.25 108.097656 163.25 110.371094 L 163.25 130.804688 C 163.25 133.078125 161.40625 134.921875 159.132812 134.921875 " fill-opacity="1" fill-rule="nonzero"/><path fill="#ffffff" d="M 219.984375 114.488281 L 219.984375 126.6875 C 223.308594 126.640625 226 123.921875 226 120.585938 C 226 117.25 223.308594 114.53125 219.984375 114.488281 Z M 219.898438 134.921875 L 215.867188 134.921875 C 213.59375 134.921875 211.75 133.078125 211.75 130.804688 L 211.75 110.371094 C 211.75 108.097656 213.59375 106.253906 215.867188 106.253906 L 219.898438 106.253906 C 227.800781 106.253906 234.234375 112.683594 234.234375 120.585938 C 234.234375 128.492188 227.800781 134.921875 219.898438 134.921875 " fill-opacity="1" fill-rule="nonzero"/><path fill="#ffffff" d="M 120.6875 193.339844 C 119.78125 193.339844 118.867188 193.039062 118.109375 192.429688 C 116.335938 191.003906 116.054688 188.410156 117.480469 186.640625 C 122.042969 180.976562 128.128906 176.84375 135.082031 174.695312 L 170.160156 163.851562 C 172.335938 163.1875 174.636719 164.40625 175.304688 166.582031 C 175.96875 168.753906 174.75 171.058594 172.574219 171.722656 L 172.4375 171.765625 L 137.515625 182.558594 C 132.132812 184.222656 127.421875 187.417969 123.894531 191.800781 C 123.082031 192.8125 121.890625 193.339844 120.6875 193.339844 " fill-opacity="1" fill-rule="nonzero"/><path fill="#ffffff" d="M 254.3125 193.339844 C 253.109375 193.339844 251.917969 192.8125 251.105469 191.800781 C 247.574219 187.417969 242.867188 184.222656 237.484375 182.558594 L 202.425781 171.722656 C 200.25 171.054688 199.03125 168.753906 199.695312 166.582031 C 200.363281 164.40625 202.667969 163.183594 204.839844 163.851562 L 204.976562 163.894531 L 239.917969 174.695312 C 246.871094 176.84375 252.957031 180.976562 257.519531 186.640625 C 258.941406 188.410156 258.664062 191.003906 256.890625 192.429688 C 256.132812 193.039062 255.21875 193.339844 254.3125 193.339844 " fill-opacity="1" fill-rule="nonzero"/><path fill="#ffffff" d="M 167.242188 260.683594 C 166.363281 260.683594 165.480469 260.402344 164.730469 259.828125 L 143.867188 243.734375 C 142.855469 242.953125 142.265625 241.75 142.265625 240.472656 C 142.265625 239.195312 142.855469 237.992188 143.867188 237.214844 L 164.730469 221.117188 C 166.53125 219.730469 169.117188 220.0625 170.503906 221.863281 C 171.894531 223.664062 171.558594 226.25 169.757812 227.636719 L 153.121094 240.472656 L 169.757812 253.308594 C 171.558594 254.695312 171.894531 257.28125 170.503906 259.082031 C 169.695312 260.132812 168.472656 260.683594 167.242188 260.683594 " fill-opacity="1" fill-rule="nonzero"/><path fill="#ffffff" d="M 207.757812 260.683594 C 206.523438 260.683594 205.304688 260.132812 204.496094 259.082031 C 203.105469 257.28125 203.441406 254.695312 205.238281 253.308594 L 221.878906 240.472656 L 205.238281 227.636719 C 203.441406 226.25 203.105469 223.664062 204.496094 221.863281 C 205.882812 220.0625 208.46875 219.730469 210.269531 221.117188 L 231.132812 237.214844 C 232.144531 237.992188 232.734375 239.195312 232.734375 240.472656 C 232.734375 241.75 232.144531 242.953125 231.132812 243.734375 L 210.269531 259.828125 C 209.519531 260.402344 208.636719 260.683594 207.757812 260.683594 " fill-opacity="1" fill-rule="nonzero"/><path fill="#ffffff" d="M 179.902344 272.945312 C 179.550781 272.945312 179.191406 272.902344 178.835938 272.804688 C 176.640625 272.21875 175.335938 269.960938 175.925781 267.765625 L 191.121094 211.050781 C 191.710938 208.855469 193.964844 207.550781 196.164062 208.140625 C 198.359375 208.726562 199.664062 210.984375 199.074219 213.179688 L 183.878906 269.894531 C 183.386719 271.734375 181.722656 272.945312 179.902344 272.945312 " fill-opacity="1" fill-rule="nonzero"/><g clip-path="url(#09c9688072)"><path fill="#ffffff" d="M 45.777344 312.203125 L 329.222656 312.203125 C 328.960938 303.175781 321.539062 295.914062 312.449219 295.914062 L 62.550781 295.914062 C 53.460938 295.914062 46.039062 303.175781 45.777344 312.203125 Z M 333.347656 320.433594 L 41.652344 320.433594 C 39.378906 320.433594 37.539062 318.589844 37.539062 316.320312 L 37.539062 312.691406 C 37.539062 298.898438 48.757812 287.679688 62.550781 287.679688 L 312.449219 287.679688 C 326.242188 287.679688 337.460938 298.898438 337.460938 312.691406 L 337.460938 316.320312 C 337.460938 318.589844 335.621094 320.433594 333.347656 320.433594 " fill-opacity="1" fill-rule="nonzero"/></g></svg>